#extradata 0:       86, 0xc7ca09e5
#extradata 1:       22, 0x12dc010c
#tb 0: 1/10000000
#media_type 0: video
#codec_id 0: mpeg2video
#dimensions 0: 720x576
#sar 0: 64/45
#tb 1: 1/10000000
#media_type 1: audio
#codec_id 1: mp2
#sample_rate 1: 48000
#channel_layout 1: 3
#channel_layout_name 1: stereo
1,         -2,         -2,   240000,      576, 0x9b6e1638
1,     239998,     239998,   240000,      576, 0x0ca91183
1,     479998,     479998,   240000,      576, 0xec6a180f
1,     719998,     719998,   240000,      576, 0x478a2b9b
1,     959998,     959998,   240000,      576, 0x00fa15b3
1,    1199998,    1199998,   240000,      576, 0xfb551816
1,    1439998,    1439998,   240000,      576, 0x422e12bd
1,    1679998,    1679998,   240000,      576, 0xa7581b29
1,    1919998,    1919998,   240000,      576, 0xd4b31a74
1,    2159998,    2159998,   240000,      576, 0x11521b10
1,    2399998,    2399998,   240000,      576, 0x3dcc1474
1,    2639998,    2639998,   240000,      576, 0x66c31aab
1,    2879998,    2879998,   240000,      576, 0x97f318a8
1,    3119998,    3119998,   240000,      576, 0xd3fb1a30
1,    3359998,    3359998,   240000,      576, 0xd2bd16af
1,    3599998,    3599998,   240000,      576, 0x6c10146a
1,    3839998,    3839998,   240000,      576, 0x10d81468
1,    4079998,    4079998,   240000,      576, 0x3813162d
1,    4319998,    4319998,   240000,      576, 0x89e71d95
1,    4559998,    4559998,   240000,      576, 0xd1c717f9
1,    4799998,    4799998,   240000,      576, 0x1a311e5f
1,    5039998,    5039998,   240000,      576, 0x0ea80e05
1,    5279998,    5279998,   240000,      576, 0x2f1718f2
1,    5519998,    5519998,   240000,      576, 0xffe01e13
1,    5759998,    5759998,   240000,      576, 0xa7b02296
1,    5999998,    5999998,   240000,      576, 0x199f1597
1,    6239998,    6239998,   240000,      576, 0xdea217ba
1,    6479998,    6479998,   240000,      576, 0x8a790f01
1,    6719998,    6719998,   240000,      576, 0x23e80038
1,    6959998,    6959998,   240000,      576, 0x75dc048a
1,    7199998,    7199998,   240000,      576, 0xeb4b0d93
1,    7439998,    7439998,   240000,      576, 0xde1322f5
1,    7679998,    7679998,   240000,      576, 0xc3131f35
1,    7919998,    7919998,   240000,      576, 0x708f1381
1,    8159998,    8159998,   240000,      576, 0x1f00137e
0,    8286442,    9486442,   400000,    41980, 0xd4920915
1,    8399998,    8399998,   240000,      576, 0x05131eb0
1,    8639998,    8639998,   240000,      576, 0x78151c22
0,    8686442,    8686442,   400000,     7228, 0x1b141fa3, F=0x0
1,    8879998,    8879998,   240000,      576, 0x31771239
0,    9086331,    9086331,   400000,     7492, 0x1a47f3e4, F=0x0
1,    9119998,    9119998,   240000,      576, 0x3ce4097c
1,    9359998,    9359998,   240000,      576, 0x180e15f4
0,    9486442,   10686331,   400000,    25068, 0xcb70a744, F=0x0
1,    9599998,    9599998,   240000,      576, 0x30db0604
1,    9839998,    9839998,   240000,      576, 0x9b290284
0,    9886442,    9886442,   400000,     7212, 0x0ab9f558, F=0x0
1,   10079998,   10079998,   240000,      576, 0xcf340753
0,   10286442,   10286442,   400000,     7612, 0xa93054f0, F=0x0
1,   10319998,   10319998,   240000,      576, 0xdaa41457
1,   10559998,   10559998,   240000,      576, 0x34d310a2
0,   10686331,   11886331,   400000,    22868, 0xa77db64a, F=0x0
1,   10799998,   10799998,   240000,      576, 0x58b31010
1,   11039998,   11039998,   240000,      576, 0x19610f54
0,   11086442,   11086442,   400000,     6260, 0x6cf76411, F=0x0
1,   11279998,   11279998,   240000,      576, 0x17762352
0,   11486331,   11486331,   400000,     6156, 0xe168394b, F=0x0
1,   11519998,   11519998,   240000,      576, 0x1fea1448
1,   11759998,   11759998,   240000,      576, 0x55840a01
0,   11886331,   13086442,   400000,    23364, 0x53164f1e, F=0x0
1,   11999998,   11999998,   240000,      576, 0x6c9c24ce
1,   12239998,   12239998,   240000,      576, 0x955f1e97
0,   12286442,   12286442,   400000,     6708, 0x89877269, F=0x0
1,   12479998,   12479998,   240000,      576, 0x2827134f
0,   12686442,   12686442,   400000,     6908, 0x8d62a249, F=0x0
1,   12719998,   12719998,   240000,      576, 0x34a01c29
1,   12959998,   12959998,   240000,      576, 0x7d351e52
0,   13086442,   14286442,   400000,    38156, 0xec41f682
1,   13199998,   13199998,   240000,      576, 0x00c91d9e
1,   13439998,   13439998,   240000,      576, 0x57ea1a97
0,   13486331,   13486331,   400000,     5764, 0xcc04534b, F=0x0
1,   13679998,   13679998,   240000,      576, 0xef3a1c74
0,   13886331,   13886331,   400000,     5388, 0xb8a1c3c5, F=0x0
1,   13919998,   13919998,   240000,      576, 0x11fc217d
1,   14159998,   14159998,   240000,      576, 0x59ce20e5
0,   14286442,   15486331,   400000,    16764, 0x59460d96, F=0x0
1,   14399998,   14399998,   240000,      576, 0xaafc1dbf
1,   14639998,   14639998,   240000,      576, 0xdd941609
0,   14686331,   14686331,   400000,     5548, 0x5c91e93d, F=0x0
1,   14879998,   14879998,   240000,      576, 0x900420b0
0,   15086331,   15086331,   400000,     5652, 0x5e321aed, F=0x0
1,   15119998,   15119998,   240000,      576, 0x5f4f1aa1
1,   15359998,   15359998,   240000,      576, 0x7d7e18de
0,   15486331,   16686331,   400000,    15564, 0xefdf5080, F=0x0
1,   15599998,   15599998,   240000,      576, 0x986c0d9d
1,   15839998,   15839998,   240000,      576, 0xcb4c21c0
0,   15886331,   15886331,   400000,     6492, 0xd1d5c5f8, F=0x0
1,   16079998,   16079998,   240000,      576, 0xbcfb1e8b
0,   16286331,   16286331,   400000,     5604, 0xf9472b44, F=0x0
1,   16319998,   16319998,   240000,      576, 0xcb541b4c
1,   16559998,   16559998,   240000,      576, 0x980426e9
0,   16686331,   17886331,   400000,    17924, 0x45815b7b, F=0x0
1,   16799998,   16799998,   240000,      576, 0x09d00aa0
1,   17039998,   17039998,   240000,      576, 0xad591374
0,   17086442,   17086442,   400000,     5020, 0x3cc5e554, F=0x0
1,   17279998,   17279998,   240000,      576, 0x97bf1461
0,   17486442,   17486442,   400000,     5276, 0xa0554c12, F=0x0
1,   17519998,   17519998,   240000,      576, 0xdc871cc4
1,   17759998,   17759998,   240000,      576, 0x56781896
0,   17886331,   19086442,   400000,    31460, 0x5765eb5f
1,   17999998,   17999998,   240000,      576, 0xc77714e3
1,   18239998,   18239998,   240000,      576, 0x280e18d4
0,   18286331,   18286331,   400000,     4972, 0x91adbab7, F=0x0
1,   18479998,   18479998,   240000,      576, 0xbc0d2302
0,   18686442,   18686442,   400000,     5580, 0xfea707cb, F=0x0
1,   18719998,   18719998,   240000,      576, 0x79191384
1,   18959998,   18959998,   240000,      576, 0x65481c97
0,   19086442,   20286331,   400000,    17412, 0x0afe4d27, F=0x0
1,   19199998,   19199998,   240000,      576, 0xc94d227d
1,   19439998,   19439998,   240000,      576, 0xa68a1f14
0,   19486442,   19486442,   400000,     5236, 0x03f55309, F=0x0
1,   19679998,   19679998,   240000,      576, 0x6af11a5c
0,   19886331,   19886331,   400000,     4924, 0x558e753c, F=0x0
1,   19919998,   19919998,   240000,      576, 0x4d1019ef
1,   20159998,   20159998,   240000,      576, 0x3b1b17b5
0,   20286331,   21486331,   400000,    15396, 0xf145d121, F=0x0
1,   20399998,   20399998,   240000,      576, 0xcdd8159f
1,   20639998,   20639998,   240000,      576, 0x97cd1d06
0,   20686331,   20686331,   400000,     4708, 0x43066a92, F=0x0
1,   20879998,   20879998,   240000,      576, 0x5d1b1123
0,   21086442,   21086442,   400000,     4332, 0x9e22bcba, F=0x0
1,   21119998,   21119998,   240000,      576, 0x888d0cb0
1,   21359998,   21359998,   240000,      576, 0x556e1dad
0,   21486331,   22686442,   400000,    12876, 0x46ff9ef4, F=0x0
1,   21599998,   21599998,   240000,      576, 0xf7af0bce
1,   21839998,   21839998,   240000,      576, 0xb5da160a
0,   21886442,   21886442,   400000,     5940, 0x27cba62e, F=0x0
1,   22079998,   22079998,   240000,      576, 0x4a8d0e98
0,   22286442,   22286442,   400000,     6124, 0x6bab0a6d, F=0x0
1,   22319998,   22319998,   240000,      576, 0x183b1c7e
1,   22559998,   22559998,   240000,      576, 0xc47120e6
0,   22686442,   23886442,   400000,    36428, 0x942f9648
1,   22799998,   22799998,   240000,      576, 0xb1f31346
0,   23086331,   23086331,   400000,     6660, 0x545a0db7, F=0x0
0,   23486331,   23486331,   400000,     6780, 0x2d1d4189, F=0x0
0,   23886442,   25086331,   400000,    16460, 0x7c3b3ca4, F=0x0
0,   24286442,   24286442,   400000,     6724, 0x8538cc6f, F=0x0
0,   24686442,   24686442,   400000,     7068, 0x69574fd0, F=0x0
0,   25086331,   26286331,   400000,    19552, 0xf230e854, F=0x0
